<svg xmlns="http://www.w3.org/2000/svg" viewBox="0 0 209.09 75.54"><defs><style>.cls-1{fill:#ed7a27;}.cls-2{fill:#fff;}</style></defs><title>logo</title><g id="Capa_2" data-name="Capa 2"><g id="Capa_1-2" data-name="Capa 1"><path class="cls-1" d="M65.7,31.29a4.38,4.38,0,0,0-1.87-2.09L50,20.93A7,7,0,0,0,47,20a5.89,5.89,0,0,0-2.84,1.09l-9.8,7.15a2.71,2.71,0,0,1-3,0l-9.8-7.15A5.89,5.89,0,0,0,18.74,20a7,7,0,0,0-2.94.95L1.94,29.2A4.34,4.34,0,0,0,.08,31.29a7.87,7.87,0,0,0,.16,2.94l2,8.18a3.62,3.62,0,0,0,1.87,2.35,4.84,4.84,0,0,0,3.14-.2l5.21-2.29c.93-.41,1.69-1.16,1.67-1.67a5,5,0,0,0-1.26-2.31l-1.65-1.85a4.75,4.75,0,0,1-1.23-2.31,1,1,0,0,1,1-1,10.51,10.51,0,0,1,2.73.55l12.16,4a2.27,2.27,0,0,1,1.48,2.41l-.87,5.7a2.4,2.4,0,0,0,1.45,2.49l3.28,1.24h0l.16.06h0a6.28,6.28,0,0,0,1.55.38,6.28,6.28,0,0,0,1.55-.38h0l.16-.06h0l3.26-1.23a2.4,2.4,0,0,0,1.46-2.49l-.86-5.7A2.28,2.28,0,0,1,40,37.71l12.15-4a10.5,10.5,0,0,1,2.73-.55,1,1,0,0,1,1,1,4.76,4.76,0,0,1-1.23,2.31l-1.64,1.85a5,5,0,0,0-1.26,2.31c0,.51.73,1.26,1.67,1.67l5.23,2.29a4.84,4.84,0,0,0,3.14.2,3.62,3.62,0,0,0,1.87-2.35l2-8.18A7.79,7.79,0,0,0,65.7,31.29Z"/><path class="cls-1" d="M27.28,62.56a5.27,5.27,0,0,0-2-2.81l-3.82-2.46a4.92,4.92,0,0,1-1.9-2.82L18.52,48.7a4.72,4.72,0,0,0-1.26-2.51,3,3,0,0,0-2.61.05L7,49.6c-.93.41-1.7,1.22-1.7,1.79A4.16,4.16,0,0,0,6.67,53.7l.1.1a9.18,9.18,0,0,1,2,3L11.33,64a5.84,5.84,0,0,0,2.24,2.66l15.26,8.7c.89.5,1.42.1,1.19-.89Z"/><path class="cls-1" d="M58.76,49.6l-7.64-3.36a3,3,0,0,0-2.61-.05,4.75,4.75,0,0,0-1.25,2.51l-1.08,5.8a4.45,4.45,0,0,1-2,2.71l-4.83,2.65a4.45,4.45,0,0,0-2,2.71L35.22,74.41c-.19,1,.39,1.42,1.28.92L52.2,66.6A5.74,5.74,0,0,0,54.45,64L57,56.81a9.19,9.19,0,0,1,2-3l.1-.09a4.16,4.16,0,0,0,1.35-2.31C60.46,50.81,59.7,50,58.76,49.6Z"/><path class="cls-1" d="M.62,25A8.45,8.45,0,0,0,3,23.91l12.94-8.49a9.47,9.47,0,0,0,2.49-2.61L23,4.93a6.44,6.44,0,0,0,.72-3.44l0-.39A1.08,1.08,0,0,0,21.94.25L8.32,8.86a8.47,8.47,0,0,0-2.45,2.62L1.71,19.13a16.26,16.26,0,0,0-1.3,3.43l-.19.81C0,24.36.17,25.12.62,25Z"/><path class="cls-1" d="M47.37,12.8a9.49,9.49,0,0,0,2.49,2.61l12.93,8.49A8.42,8.42,0,0,0,65.16,25c.45.07.63-.69.4-1.68l-.19-.81a16.49,16.49,0,0,0-1.3-3.43l-4.15-7.64a8.45,8.45,0,0,0-2.45-2.62L43.84.25a1.08,1.08,0,0,0-1.79.85l0,.4a6.39,6.39,0,0,0,.72,3.43Z"/><path class="cls-2" d="M153,21.06a17,17,0,1,0,17,17A17,17,0,0,0,153,21.06Zm0,26.46a9.46,9.46,0,1,1,9.46-9.46A9.46,9.46,0,0,1,153,47.52Zm-26.21-6.29a10.32,10.32,0,0,0-3-20.19H108.79a.81.81,0,0,0-.81.81V54.26a.81.81,0,0,0,.81.81h6a.81.81,0,0,0,.81-.81V41.76h3.57l6.73,13.32h6.95c1.47,0,.66-1.52.66-1.52ZM123,35.41h-7.31v-7.3H123a3.65,3.65,0,0,1,0,7.29Zm-34.72,8-2.59,3.3v7.59a.81.81,0,0,1-.81.81H78.41a.81.81,0,0,1-.81-.81V21.85a.81.81,0,0,1,.81-.81H84.9a.81.81,0,0,1,.81.81V34.92L96.78,21h6.93s1.69.52.49,2.11c-.85,1.13-6.14,7.82-9.12,11.61l-2,2.6h0l-4.73,6Zm16.32,11.7h-7.3l-5.36-7,4.75-6,8.6,11S106.32,55.07,104.62,55.07Zm103.5,0h-5.66s-.77,0-1-1.7-2.06-14.1-2.06-14.1h-.27l-7.68,15.12h0a.59.59,0,0,1-.3.28l-.84.32h0l0,0h0a.87.87,0,0,1-.8,0h0l0,0h0l-.84-.32a.59.59,0,0,1-.31-.29h0l-7.68-15.11h-.27s-1.86,12.43-2.06,14.1-1,1.7-1,1.7h-5.66c-1.31,0-.91-1.56-.91-1.56l5.47-32.58a1.47,1.47,0,0,1,1.21-.5,1.22,1.22,0,0,1,1.13.54l11.35,21.2L201.22,21a1.22,1.22,0,0,1,1.13-.54,1.47,1.47,0,0,1,1.21.5L209,53.51S209.43,55.07,208.12,55.07Z"/></g></g></svg>